# xmcd CD database file
#
# Track frame offsets:
#	150
#	12768
#	27033
#	39460
#	54218
#	67796
#	80736
#	93635
#	107978
#	120741
#	134211
#	149135
#	163941
#	177114
#	191265
#	204933
#	217300
#	229722
#	244010
#	257568
#	272317
#	284809
#	299008
#	311343
#	322442
#
# Disc length: 4500 seconds
#
# Revision: 1
# Processed by: cddbd v1.5.2PL0 Copyright (c) Steve Scherf et al.
# Submitted via: CDex 1.70beta2
#
DISCID=82119219
DTITLE=Nat Gonella - The Very Best of Nat Gonella [CD1]
DYEAR=2008
DGENRE=Jazz
TTITLE0=Chicago 
TTITLE1=E Flat Blues 
TTITLE2=Junk Man's Blues 
TTITLE3=Always 
TTITLE4=Mayor Of Alabam' 
TTITLE5=Blow Gabriel Blow 
TTITLE6=Boo-Hoo 
TTITLE7=Blue Turning Grey Over You 
TTITLE8=Mood Indigo 
TTITLE9=Ain't Misbehavin' 
TTITLE10=Twilight In Turkey 
TTITLE11=Bessie Couldn't Help It 
TTITLE12=One O'Clock Jump 
TTITLE13=Swing And Sway 
TTITLE14=Delta Serenade 
TTITLE15=Swingin' In The Corn 
TTITLE16=Wacky Dust 
TTITLE17=It's The Rhythm In Me 
TTITLE18=When You're Smiling 
TTITLE19=Tea For Two 
TTITLE20=Your Feet's Too Big 
TTITLE21=Man From The South 
TTITLE22=Pennies From Heaven 
TTITLE23=Crazy Values 
TTITLE24=I Can't Dance (I Got Ants In My Pants) 
EXTD=YEAR: 2008
EXTT0=
EXTT1=
EXTT2=
EXTT3=
EXTT4=
EXTT5=
EXTT6=
EXTT7=
EXTT8=
EXTT9=
EXTT10=
EXTT11=
EXTT12=
EXTT13=
EXTT14=
EXTT15=
EXTT16=
EXTT17=
EXTT18=
EXTT19=
EXTT20=
EXTT21=
EXTT22=
EXTT23=
EXTT24=
PLAYORDER=
